<?xml version="1.0" encoding="utf-8"?>
<svg
                      class="fill-current"
                      width="20"
                      height="20"
                      viewBox="0 0 20 20"
                      fill="none"
                      xmlns="http://www.w3.org/2000/svg"
                    >
                      <path
                        d="M18.75 10.6875C18.375 10.6875 18.0625 11 18.0625 11.375V17C18.0625 17.3125 17.8125 17.5625 17.5 17.5625H2.5C2.1875 17.5625 1.9375 17.3125 1.9375 17V11.375C1.9375 11 1.625 10.6875 1.25 10.6875C0.875 10.6875 0.5625 11 0.5625 11.375V17C0.5625 18.0625 1.4375 18.9375 2.5 18.9375H17.5C18.5625 18.9375 19.4375 18.0625 19.4375 17V11.375C19.4375 11.0313 19.125 10.6875 18.75 10.6875Z"
                        fill=""
                      ></path>
                      <path
                        d="M9.28125 12.9688C9.46875 13.1563 9.75 13.2813 10 13.2813C10.25 13.2813 10.5312 13.1875 10.7187 13L13.6875 10.0625C13.9687 9.78125 13.9687 9.34375 13.6875 9.0625C13.4062 8.78125 12.9687 8.78125 12.6875 9.0625L10.7187 11.0312V1.71875C10.7187 1.34375 10.4062 1.03125 10.0312 1.03125C9.65625 1.03125 9.34375 1.34375 9.34375 1.71875V11.0312L7.375 9.0625C7.09375 8.78125 6.65625 8.78125 6.375 9.0625C6.09375 9.34375 6.09375 9.78125 6.375 10.0625L9.28125 12.9688Z"
                        fill=""
                      ></path>
                    </svg>